<svg width="271" height="163" viewBox="0 0 271 163" fill="none" xmlns="http://www.w3.org/2000/svg">
<g clip-path="url(#clip0_939_15584)">
<path d="M207.484 161.157C204.014 158.207 201.907 153.548 202.46 149.012C203.012 144.476 206.435 140.307 210.876 139.343C215.316 138.38 220.378 141.047 221.726 145.41C222.469 136.997 223.324 128.232 227.77 121.067C231.796 114.58 238.768 109.938 246.325 109.108C253.882 108.277 261.838 111.414 266.551 117.414C271.264 123.415 272.418 132.138 269.117 139.028C266.686 144.103 262.206 147.879 257.512 150.952C242.345 160.797 224.154 164.801 206.286 162.227L207.484 161.157Z" fill="#F2F2F2"/>
<path d="M259.079 111.587C252.843 116.697 247.123 122.411 242.001 128.648C233.984 138.376 227.497 149.282 222.765 160.987C222.419 161.841 223.797 162.213 224.14 161.368C231.882 142.345 244.241 125.578 260.087 112.601C260.798 112.018 259.785 111.009 259.079 111.587Z" fill="white"/>
<path d="M87.2393 160.355C92.0047 156.304 94.8992 149.905 94.1402 143.675C93.3811 137.445 88.6794 131.718 82.5807 130.395C76.482 129.072 69.5299 132.734 67.6775 138.728C66.6581 127.172 65.4833 115.133 59.3767 105.292C53.8473 96.3819 44.2703 90.0063 33.8909 88.8657C23.5116 87.7251 12.5835 92.033 6.11029 100.275C-0.362921 108.517 -1.94786 120.499 2.58581 129.961C5.9256 136.931 12.0787 142.119 18.5256 146.339C39.0934 159.804 64.6078 165.419 88.8851 161.825" fill="#F2F2F2"/>
<path d="M16.3743 92.2716C24.9386 99.2895 32.7953 107.138 39.831 115.705C46.8678 124.263 53.063 133.487 58.3295 143.248C61.2732 148.723 63.9176 154.357 66.2509 160.122C66.7266 161.295 64.8336 161.806 64.3631 160.646C60.2303 150.481 55.1172 140.748 49.0971 131.587C43.1063 122.459 36.2495 113.937 28.623 106.141C24.3094 101.734 19.7582 97.5688 14.99 93.6643C14.0127 92.8636 15.405 91.4776 16.3743 92.2716L16.3743 92.2716Z" fill="white"/>
<path d="M194.528 162.643H80.833V45.2831C80.833 20.3139 101.025 0 125.844 0H149.518C174.337 0 194.528 20.3139 194.528 45.2831V162.643Z" fill="#F2F2F2"/>
<path d="M170.855 162.643H80.8332V45.2831C80.8083 35.7155 83.8198 26.3896 89.4291 18.6634C89.6358 18.3799 89.8421 18.1 90.0548 17.8232C92.768 14.2432 95.9967 11.0903 99.6345 8.46871C99.84 8.31828 100.046 8.17048 100.256 8.02266C103.3 5.90342 106.592 4.17098 110.059 2.86477C110.265 2.78628 110.475 2.70762 110.684 2.63218C113.819 1.50655 117.069 0.735503 120.374 0.333267C120.579 0.30511 120.789 0.283077 121 0.261043C124.22 -0.0853868 127.468 -0.0853868 130.689 0.261043C130.899 0.283077 131.109 0.305107 131.316 0.333568C134.62 0.73583 137.87 1.50679 141.004 2.6322C141.214 2.70764 141.423 2.78628 141.63 2.86494C145.054 4.15466 148.308 5.86125 151.319 7.94662C151.528 8.09122 151.738 8.23904 151.944 8.38685C153.983 9.85118 155.899 11.4825 157.671 13.2643C159.092 14.6934 160.416 16.2168 161.634 17.8242C161.846 18.1 162.052 18.3799 162.259 18.663C167.868 26.3893 170.88 35.7153 170.855 45.2831V162.643Z" fill="#CCCCCC"/>
<path d="M163.535 110.152C166.287 110.152 168.519 107.908 168.519 105.138C168.519 102.369 166.287 100.124 163.535 100.124C160.782 100.124 158.551 102.369 158.551 105.138C158.551 107.908 160.782 110.152 163.535 110.152Z" fill="#6C63FF"/>
<path d="M185.214 159.128H181.395L179.578 144.309L185.215 144.309L185.214 159.128Z" fill="#FFB8B8"/>
<path d="M178.667 158.03H186.032V162.695H174.03C174.03 162.083 174.15 161.476 174.383 160.91C174.616 160.344 174.958 159.83 175.388 159.397C175.819 158.963 176.33 158.62 176.893 158.385C177.455 158.151 178.058 158.03 178.667 158.03Z" fill="#2F2E41"/>
<path d="M204.215 159.128H200.396L198.579 144.309L204.216 144.309L204.215 159.128Z" fill="#FFB8B8"/>
<path d="M197.668 158.03H205.033V162.695H193.031C193.031 162.083 193.151 161.476 193.384 160.91C193.617 160.344 193.959 159.83 194.389 159.397C194.82 158.963 195.331 158.62 195.894 158.385C196.456 158.151 197.059 158.03 197.668 158.03Z" fill="#2F2E41"/>
<path d="M166.057 106.132C165.782 105.725 165.6 105.262 165.522 104.776C165.444 104.29 165.473 103.793 165.607 103.319C165.741 102.846 165.977 102.408 166.297 102.036C166.618 101.664 167.015 101.367 167.462 101.167L180.444 65.1702L186.832 68.6773L172.009 103.077C172.294 103.854 172.286 104.71 171.986 105.482C171.686 106.253 171.115 106.888 170.382 107.264C169.648 107.641 168.803 107.733 168.006 107.525C167.208 107.316 166.515 106.82 166.057 106.132Z" fill="#FFB8B8"/>
<path d="M202.265 112.896C201.84 112.651 201.474 112.315 201.193 111.913C200.911 111.511 200.721 111.051 200.635 110.566C200.549 110.082 200.57 109.584 200.695 109.109C200.821 108.633 201.049 108.191 201.363 107.814L197.342 69.7354L204.611 70.0695L206.283 107.525C206.878 108.097 207.243 108.87 207.31 109.696C207.377 110.522 207.14 111.344 206.645 112.006C206.15 112.668 205.43 113.124 204.623 113.288C203.816 113.452 202.976 113.312 202.265 112.896Z" fill="#FFB8B8"/>
<path d="M190.667 58.5024C194.893 58.5024 198.318 55.0564 198.318 50.8055C198.318 46.5547 194.893 43.1086 190.667 43.1086C186.442 43.1086 183.017 46.5547 183.017 50.8055C183.017 55.0564 186.442 58.5024 190.667 58.5024Z" fill="#FFB8B8"/>
<path d="M202.216 104.235H179.15L179.178 104.055C179.22 103.785 183.289 76.9668 180.288 68.1932C179.986 67.331 180.013 66.3872 180.362 65.5434C180.711 64.6997 181.358 64.0157 182.178 63.623H182.178C186.468 61.5906 194.703 59.0881 201.653 65.1614C202.676 66.0699 203.474 67.2052 203.986 68.4777C204.497 69.7502 204.707 71.1249 204.599 72.4932L202.216 104.235Z" fill="#6C63FF"/>
<path d="M183.58 80.93L173.196 78.8106L178.064 67.2063C178.355 66.0823 179.078 65.1205 180.073 64.5318C181.068 63.943 182.255 63.7754 183.373 64.0658C184.491 64.3561 185.448 65.0807 186.036 66.0805C186.624 67.0803 186.793 68.2738 186.507 69.3991L183.58 80.93Z" fill="#6C63FF"/>
<path d="M196.88 84.8653L196.255 70.4682C195.782 67.7618 197.322 65.2034 199.69 64.7852C202.059 64.3685 204.373 66.2456 204.848 68.9719L207.195 82.4245L196.88 84.8653Z" fill="#6C63FF"/>
<path d="M201.449 102.512C205.16 116.732 205.565 134.811 204.563 154.532L199.58 153.906L190.546 116.3L185.562 154.532L179.955 154.219C178.28 133.527 176.649 115.763 179.332 104.079L201.449 102.512Z" fill="#2F2E41"/>
<path d="M195.709 56.754C194.281 58.2835 191.631 57.4624 191.445 55.3729C191.43 55.2107 191.431 55.0474 191.448 54.8854C191.544 53.9598 192.076 53.1195 191.948 52.1422C191.919 51.899 191.829 51.6672 191.687 51.4688C190.549 49.9366 187.879 52.1541 186.806 50.767C186.148 49.9165 186.922 48.5774 186.416 47.6268C185.75 46.3722 183.775 46.9911 182.537 46.304C181.16 45.5395 181.242 43.413 182.149 42.1196C183.255 40.5421 185.194 39.7004 187.109 39.5791C189.024 39.4578 190.926 39.9786 192.713 40.6795C194.745 41.4759 196.759 42.5766 198.009 44.3735C199.529 46.5587 199.675 49.4966 198.915 52.0518C198.453 53.6062 196.874 55.505 195.709 56.754Z" fill="#2F2E41"/>
<path d="M261.65 162.845H31.6755C31.5773 162.845 31.4832 162.805 31.4139 162.735C31.3446 162.665 31.3057 162.571 31.3057 162.472C31.3057 162.373 31.3446 162.278 31.4139 162.208C31.4832 162.138 31.5773 162.099 31.6755 162.099H261.65C261.748 162.099 261.842 162.138 261.911 162.208C261.981 162.278 262.02 162.373 262.02 162.472C262.02 162.571 261.981 162.665 261.911 162.735C261.842 162.805 261.748 162.845 261.65 162.845Z" fill="#3F3D56"/>
<path d="M146.091 128.642H105.597C105.064 128.644 104.551 128.434 104.171 128.058C103.792 127.681 103.576 127.168 103.572 126.631V35.6984C103.576 35.1619 103.792 34.6489 104.171 34.2721C104.551 33.8952 105.064 33.6851 105.597 33.688H146.091C146.625 33.6851 147.137 33.8952 147.517 34.2721C147.896 34.6489 148.112 35.1619 148.116 35.6984V126.631C148.112 127.168 147.896 127.681 147.517 128.058C147.137 128.434 146.625 128.644 146.091 128.642Z" fill="white"/>
<path d="M148.116 63.1111H103.572V63.7378H148.116V63.1111Z" fill="#CCCCCC"/>
<path d="M148.271 98.8708H103.728V99.4976H148.271V98.8708Z" fill="#CCCCCC"/>
<path d="M118.212 33.6882H117.589V128.955H118.212V33.6882Z" fill="#CCCCCC"/>
<path d="M133.787 33.6882H133.164V128.955H133.787V33.6882Z" fill="#CCCCCC"/>
</g>
<defs>
<clipPath id="clip0_939_15584">
<rect width="271" height="163" fill="white"/>
</clipPath>
</defs>
</svg>
